<?xml version="1.0" encoding="UTF-8" standalone="no"?>
<!-- Created with Inkscape (http://www.inkscape.org/) -->

<svg
   xmlns:dc="http://purl.org/dc/elements/1.1/"
   xmlns:cc="http://creativecommons.org/ns#"
   xmlns:rdf="http://www.w3.org/1999/02/22-rdf-syntax-ns#"
   xmlns:svg="http://www.w3.org/2000/svg"
   xmlns="http://www.w3.org/2000/svg"
   xmlns:sodipodi="http://sodipodi.sourceforge.net/DTD/sodipodi-0.dtd"
   xmlns:inkscape="http://www.inkscape.org/namespaces/inkscape"
   width="50mm"
   height="10mm"
   viewBox="0 0 50 10"
   version="1.1"
   id="svg5363"
   inkscape:version="0.92.4 (5da689c313, 2019-01-14)"
   sodipodi:docname="logodtk.svg">
  <defs
     id="defs5357">
    <radialGradient
       id="radialGradient36"
       spreadMethod="pad"
       gradientTransform="matrix(3.717625,-1.4869732,1.4869732,3.717625,5.2355743,292.22099)"
       gradientUnits="userSpaceOnUse"
       r="1"
       cy="0"
       cx="0"
       fy="0"
       fx="0">
      <stop
         id="stop33"
         offset="0"
         style="stop-opacity:1;stop-color:#ffffff" />
      <stop
         id="stop34"
         offset="0.642426"
         style="stop-opacity:1;stop-color:#afb0b2" />
      <stop
         id="stop35"
         offset="0.872726"
         style="stop-opacity:1;stop-color:#8d8f91" />
      <stop
         id="stop36"
         offset="1"
         style="stop-opacity:1;stop-color:#6b6b6d" />
    </radialGradient>
    <clipPath
       id="clipPath33"
       clipPathUnits="userSpaceOnUse">
      <path
         inkscape:connector-curvature="0"
         id="path33"
         transform="matrix(1.3333333,0,0,-1.3333333,-18.8976,160.5064)"
         d="M 0,134.553 H 489.726 V 0 H 0 Z" />
    </clipPath>
    <clipPath
       id="clipPath31"
       clipPathUnits="userSpaceOnUse">
      <path
         inkscape:connector-curvature="0"
         id="path31"
         transform="translate(-59.508802,-59.026402)"
         d="M 59.5088,68.0767 H 75.5117 V 43.7842 H 59.5088 Z" />
    </clipPath>
    <clipPath
       id="clipPath30"
       clipPathUnits="userSpaceOnUse">
      <path
         inkscape:connector-curvature="0"
         id="path30"
         transform="matrix(1.3333333,0,0,-1.3333333,-18.8976,160.5064)"
         d="M 0,134.553 H 489.726 V 0 H 0 Z" />
    </clipPath>
    <clipPath
       id="clipPath28"
       clipPathUnits="userSpaceOnUse">
      <path
         inkscape:connector-curvature="0"
         id="path28"
         transform="translate(-35.440401,-57.177701)"
         d="M 34.0474,67.6553 H 55.7485 V 40.2959 H 34.0474 Z" />
    </clipPath>
    <radialGradient
       id="radialGradient27"
       spreadMethod="pad"
       gradientTransform="matrix(2.49832,0,0,2.49832,5.0756647,292.08786)"
       gradientUnits="userSpaceOnUse"
       r="1"
       cy="0"
       cx="0"
       fy="0"
       fx="0">
      <stop
         id="stop23"
         offset="0"
         style="stop-opacity:1;stop-color:#ffffff icc-color(Coated-FOGRA27-ISO-12647-2:2004, 0, 0, 0, 0);" />
      <stop
         id="stop24"
         offset="0.33077128"
         style="stop-opacity:1;stop-color:#bd1220 icc-color(Coated-FOGRA27-ISO-12647-2:2004, 0.25, 1, 1, 0);" />
      <stop
         id="stop25"
         offset="0.496964"
         style="stop-opacity:1;stop-color:#bd1220 icc-color(Coated-FOGRA27-ISO-12647-2:2004, 0.25, 1, 1, 0);" />
      <stop
         id="stop26"
         offset="0.763641"
         style="stop-opacity:1;stop-color:#731215 icc-color(Coated-FOGRA27-ISO-12647-2:2004, 0.25, 1, 1, 0.50999451);" />
      <stop
         id="stop27"
         offset="1"
         style="stop-opacity:1;stop-color:#270503 icc-color(Coated-FOGRA27-ISO-12647-2:2004, 0.25, 1, 1, 0.94999695);" />
    </radialGradient>
    <clipPath
       id="clipPath23"
       clipPathUnits="userSpaceOnUse">
      <path
         inkscape:connector-curvature="0"
         id="path23"
         transform="translate(-78.195302,-58.866202)"
         d="M 0,134.553 H 489.726 V 0 H 0 Z" />
    </clipPath>
    <radialGradient
       id="radialGradient21"
       spreadMethod="pad"
       gradientTransform="matrix(3.162753,0,0,3.162753,5.0460035,292.14955)"
       gradientUnits="userSpaceOnUse"
       r="1"
       cy="0"
       cx="0"
       fy="0"
       fx="0">
      <stop
         id="stop18"
         offset="0"
         style="stop-opacity:1;stop-color:#1a171b" />
      <stop
         id="stop19"
         offset="0.781815"
         style="stop-opacity:1;stop-color:#1a171b" />
      <stop
         id="stop20"
         offset="0.93146588"
         style="stop-opacity:1;stop-color:#828385" />
      <stop
         id="stop21"
         offset="1"
         style="stop-opacity:1;stop-color:#828385" />
    </radialGradient>
    <clipPath
       id="clipPath18"
       clipPathUnits="userSpaceOnUse">
      <path
         inkscape:connector-curvature="0"
         id="path18"
         transform="translate(-463.11721,-70.319302)"
         d="M 0,134.553 H 489.726 V 0 H 0 Z" />
    </clipPath>
    <clipPath
       id="clipPath16"
       clipPathUnits="userSpaceOnUse">
      <path
         inkscape:connector-curvature="0"
         id="path16"
         transform="translate(-407.86721,-61.638701)"
         d="M 0,134.553 H 489.726 V 0 H 0 Z" />
    </clipPath>
    <clipPath
       id="clipPath14"
       clipPathUnits="userSpaceOnUse">
      <path
         inkscape:connector-curvature="0"
         id="path14"
         transform="translate(-309.93161,-63.752902)"
         d="M 0,134.553 H 489.726 V 0 H 0 Z" />
    </clipPath>
    <clipPath
       id="clipPath12"
       clipPathUnits="userSpaceOnUse">
      <path
         inkscape:connector-curvature="0"
         id="path12"
         d="M 0,134.553 H 489.726 V 0 H 0 Z" />
    </clipPath>
    <clipPath
       id="clipPath10"
       clipPathUnits="userSpaceOnUse">
      <path
         inkscape:connector-curvature="0"
         id="path10"
         transform="translate(-328.74321,-65.161102)"
         d="M 0,134.553 H 489.726 V 0 H 0 Z" />
    </clipPath>
    <clipPath
       id="clipPath8"
       clipPathUnits="userSpaceOnUse">
      <path
         inkscape:connector-curvature="0"
         id="path8"
         transform="translate(-195.9922,-65.161102)"
         d="M 0,134.553 H 489.726 V 0 H 0 Z" />
    </clipPath>
    <clipPath
       id="clipPath6"
       clipPathUnits="userSpaceOnUse">
      <path
         inkscape:connector-curvature="0"
         id="path6"
         transform="translate(-245.4316,-62.006801)"
         d="M 0,134.553 H 489.726 V 0 H 0 Z" />
    </clipPath>
    <clipPath
       id="clipPath4"
       clipPathUnits="userSpaceOnUse">
      <path
         inkscape:connector-curvature="0"
         id="path4"
         transform="translate(-149.8252,-62.006801)"
         d="M 0,134.553 H 489.726 V 0 H 0 Z" />
    </clipPath>
    <clipPath
       id="clipPath2"
       clipPathUnits="userSpaceOnUse">
      <path
         inkscape:connector-curvature="0"
         id="path2"
         transform="translate(-131.87991,-61.718801)"
         d="M 0,134.553 H 489.726 V 0 H 0 Z" />
    </clipPath>
  </defs>
  <sodipodi:namedview
     id="base"
     pagecolor="#ffffff"
     bordercolor="#666666"
     borderopacity="1.0"
     inkscape:pageopacity="0.0"
     inkscape:pageshadow="2"
     inkscape:zoom="3.959798"
     inkscape:cx="86.932966"
     inkscape:cy="48.462858"
     inkscape:document-units="mm"
     inkscape:current-layer="layer1"
     showgrid="false"
     inkscape:window-width="1920"
     inkscape:window-height="991"
     inkscape:window-x="-9"
     inkscape:window-y="-9"
     inkscape:window-maximized="1" />
  <metadata
     id="metadata5360">
    <rdf:RDF>
      <cc:Work
         rdf:about="">
        <dc:format>image/svg+xml</dc:format>
        <dc:type
           rdf:resource="http://purl.org/dc/dcmitype/StillImage" />
        <dc:title></dc:title>
      </cc:Work>
    </rdf:RDF>
  </metadata>
  <g
     inkscape:label="Capa 1"
     inkscape:groupmode="layer"
     id="layer1"
     transform="translate(0,-287)">
    <path
       clip-path="url(#clipPath2)"
       transform="matrix(0.13120729,0,0,-0.13120729,5.4919713,291.57488)"
       style="fill:#e2001a;fill-opacity:1;fill-rule:nonzero;stroke:none"
       d="m 0,0 v -16.66 c 0,-1.566 -1.27,-2.834 -2.835,-2.834 h -22.558 c -1.565,0 -2.835,1.268 -2.835,2.834 V 0 c 0,1.565 1.27,2.835 2.835,2.835 H 0 Z M 0.195,20.696 V 8.298 c -0.441,0.086 -0.897,0.134 -1.364,0.134 h -25.889 c -3.914,0 -7.087,-3.173 -7.087,-7.087 v -19.348 c 0,-3.914 3.173,-7.087 7.087,-7.087 h 25.889 c 3.914,0 7.087,3.173 7.087,7.087 v 3.542 15.806 19.351 z"
       id="path1"
       inkscape:connector-curvature="0"
       inkscape:export-xdpi="96"
       inkscape:export-ydpi="96" />
    <path
       clip-path="url(#clipPath4)"
       transform="matrix(0.13120729,0,0,-0.13120729,7.8465243,291.53709)"
       style="fill:#e2001a;fill-opacity:1;fill-rule:nonzero;stroke:none"
       d="m 0,0 v -11.166 c 0,0 19.928,6.313 23.046,7.446 3.668,1.332 5.621,1.72 5.621,4.22 0,2.5 -2.583,2.334 -2.583,2.334 H 3.667 C -0.5,2.834 0,0 0,0 M 29.631,-7.829 2.453,-16.202 c 0,0 -2.062,-0.389 -1.968,-1.845 0.162,-2.493 2.641,-2.094 2.641,-2.094 h 31.72 v -5.237 H 26.3 1.088 c -3.914,0 -7.087,3.173 -7.087,7.087 V 0.871 c 0,3.914 3.173,7.087 7.087,7.087 h 26.671 c 3.914,0 7.087,-3.173 7.087,-7.087 v -1.892 c 0,-5.504 -5.215,-6.808 -5.215,-6.808"
       id="path3"
       inkscape:connector-curvature="0"
       inkscape:export-xdpi="96"
       inkscape:export-ydpi="96" />
    <path
       clip-path="url(#clipPath6)"
       transform="matrix(0.13120729,0,0,-0.13120729,20.390781,291.53709)"
       style="fill:#e2001a;fill-opacity:1;fill-rule:nonzero;stroke:none"
       d="m 0,0 v -11.166 c 0,0 19.928,6.313 23.046,7.446 3.668,1.332 5.621,1.72 5.621,4.22 0,2.5 -2.583,2.334 -2.583,2.334 H 3.667 C -0.5,2.834 0,0 0,0 M 29.631,-7.829 2.453,-16.202 c 0,0 -2.062,-0.389 -1.968,-1.845 0.162,-2.493 2.641,-2.094 2.641,-2.094 h 31.72 v -5.237 H 26.3 1.088 c -3.914,0 -7.087,3.173 -7.087,7.087 V 0.871 c 0,3.914 3.173,7.087 7.087,7.087 h 26.671 c 3.914,0 7.087,-3.173 7.087,-7.087 v -1.892 c 0,-5.504 -5.215,-6.808 -5.215,-6.808"
       id="path5"
       inkscape:connector-curvature="0"
       inkscape:export-xdpi="96"
       inkscape:export-ydpi="96" />
    <path
       clip-path="url(#clipPath8)"
       transform="matrix(0.13120729,0,0,-0.13120729,13.903972,291.12323)"
       style="fill:#e2001a;fill-opacity:1;fill-rule:nonzero;stroke:none"
       d="m 0,0 v -21.445 c 0,-3.914 3.173,-7.087 7.087,-7.087 h 33.33 v 5.878 H 12.587 C 6.5,-22.654 5.5,-21.57 5.5,-15.567 V 0 H 23.25 V 5.158 H 5.5 V 16.263 H 0 V 5.158 h -5.583 v -5.162 z"
       id="path7"
       inkscape:connector-curvature="0"
       inkscape:export-xdpi="96"
       inkscape:export-ydpi="96" />
    <path
       clip-path="url(#clipPath10)"
       transform="matrix(0.13120729,0,0,-0.13120729,31.32187,291.12323)"
       style="fill:#e2001a;fill-opacity:1;fill-rule:nonzero;stroke:none"
       d="m 0,0 v -21.445 c 0,-3.914 3.173,-7.087 7.087,-7.087 h 33.33 v 5.878 H 12.587 C 6.5,-22.654 5.5,-21.57 5.5,-15.567 V 0 H 23.25 V 5.158 H 5.5 V 16.263 H 0 V 5.158 h -5.583 v -5.162 z"
       id="path9"
       inkscape:connector-curvature="0"
       inkscape:export-xdpi="96"
       inkscape:export-ydpi="96" />
    <path
       clip-path="url(#clipPath12)"
       transform="matrix(0.13120729,0,0,-0.13120729,-11.811632,299.67284)"
       style="fill:#e2001a;fill-opacity:1;fill-rule:nonzero;stroke:none"
       d="m 230.742,65.161 h -5.583 v 5.158 h 5.583 z"
       id="path11"
       inkscape:connector-curvature="0"
       inkscape:export-xdpi="96"
       inkscape:export-ydpi="96" />
    <path
       clip-path="url(#clipPath14)"
       transform="matrix(0.13120729,0,0,-0.13120729,28.853648,291.308)"
       style="fill:#e2001a;fill-opacity:1;fill-rule:nonzero;stroke:none"
       d="M 0,0 C 0,0 0.874,1.408 4.992,1.408 H 7.645 V 6.212 H 0.479 c 0,0 -3.453,0.069 -6.334,-3.291 -1.393,-1.625 -9.291,-9.755 -12.333,-12.882 v 27.632 h -6 v -44.795 h 6 v 8.56 l 5.106,4.85 12.82,-13.41 h 7.907 l -15.053,16.038 c 0,0 -1.892,1.681 -0.21,3.468 C -5.376,-5.235 0,0 0,0"
       id="path13"
       inkscape:connector-curvature="0"
       inkscape:export-xdpi="96"
       inkscape:export-ydpi="96" />
    <path
       clip-path="url(#clipPath16)"
       transform="matrix(0.13120729,0,0,-0.13120729,41.703515,291.5854)"
       style="fill:#e2001a;fill-opacity:1;fill-rule:nonzero;stroke:none"
       d="M 0,0 C 0,1.565 -1.27,2.835 -2.835,2.835 H -25.54 c -1.565,0 -2.835,-1.27 -2.835,-2.835 v -16.33 c 0,-1.566 1.27,-2.835 2.835,-2.835 h 22.705 c 1.565,0 2.835,1.269 2.835,2.835 z m 6.5,-18.102 c 0,-3.815 -3.173,-6.908 -7.087,-6.908 h -27.201 c -3.914,0 -7.087,3.093 -7.087,6.908 V 1.772 c 0,3.816 3.173,6.909 7.087,6.909 H -0.587 C 3.327,8.681 6.5,5.588 6.5,1.772 Z"
       id="path15"
       inkscape:connector-curvature="0"
       inkscape:export-xdpi="96"
       inkscape:export-ydpi="96" />
    <path
       clip-path="url(#clipPath18)"
       transform="matrix(0.13120729,0,0,-0.13120729,48.952716,290.44644)"
       style="fill:#e2001a;fill-opacity:1;fill-rule:nonzero;stroke:none"
       d="m 0,0 v -5.846 h -32.54 c -1.565,0 -2.835,-1.269 -2.835,-2.835 L -35,-33.69 h -6.875 v 26.782 c 0,3.815 3.173,6.908 7.087,6.908 z"
       id="path17"
       inkscape:connector-curvature="0"
       inkscape:export-xdpi="96"
       inkscape:export-ydpi="96" />
  </g>
</svg>
